
<svg version="1.1" id="Layer_1" xmlns="http://www.w3.org/2000/svg" xmlns:xlink="http://www.w3.org/1999/xlink" x="0px" y="0px"
	 viewBox="0 0 75.9782791 29.6690998" height="55px" style="enable-background:new 0 0 75.9782791 29.6690998;" xml:space="preserve">
<style type="text/css">
	.st0{fill:#FFFFFF;}
</style>
<path class="st0" d="M38.2541008,5.8106995c4.0442009-0.0538006,9.5547981,0.5683994,9.8656998,0.9831009
	c0,0,1.0429001-4.9136009,1.1072006-5.1735001C49.3277016,1.2029991,44.4728012,0,38.2541008,0
	C32.030899,0,27.0921001,1.0394993,27.1935997,1.4535999C27.2591,1.718399,28.3855991,6.7938004,28.3855991,6.7938004
	C28.6965008,6.3790989,34.207901,5.7568989,38.2541008,5.8106995 M43.094799,4.9473l0.0167999-0.1417007l0.1173019,0.0150013
	c0.1641006,0.0175991,0.3174973-0.2733002,0.4265976-0.4895l1.3570023-2.7995014l0.7780991,0.0484009l0.9217987,3.5634995
	l0.2843018,0.0275002l-0.0126991,0.1417007l-1.9279022-0.1735001l0.0142021-0.1366005l0.3722,0.0351009l-0.2597008-1.0678005
	l-1.0419998-0.1032009l-0.2625008,0.5072002c-0.1816978,0.3738003,0.0119019,0.5079002,0.1435013,0.519001l0.1408005,0.0158997
	l-0.0124016,0.1390991L43.094799,4.9473z M44.8021011,2.4468994l-0.6009026,1.2622013L45.1433983,3.8055L44.8021011,2.4468994z
	 M42.8348999,1.2875004l-0.0102005,0.1602001l-1.8430977,3.1985989l0.3001976,0.0136013
	c0.4836006,0.0274982,1.0284004-0.3079014,1.264801-1.1662006l0.1708984,0.0102005l-0.1172981,1.3688984l-2.969902-0.1258984
	l0.0116997-0.1953011l1.8206024-3.1651993l-0.1743011-0.0073013c-0.6436996-0.0328999-1.1072006,0.4660015-1.294899,1.0576
	l-0.1543999-0.0073986l0.1283989-1.2616997L42.8348999,1.2875004z M38.8700981,1.1434994v0.1592999l-1.6486969,3.3041
	l0.2973976-0.0033989c0.4869995-0.0015011,1.0142021-0.3688011,1.1962013-1.2413006l0.1693001-0.0025997l-0.0284004,1.3764992
	l-2.9724007,0.0318012L35.8801003,4.5709l1.6262016-3.2672005h-0.1752014c-0.6411018,0.0056-1.0770988,0.5346012-1.2322006,1.1355
	l-0.148201,0.0009003l0.0519028-1.2649002L38.8700981,1.1434994z M33.2918015,4.925499l-0.0077019-0.1383991l0.389801-0.0251999
	l-0.1833992-3.3040009l-0.3922997,0.0209007l-0.0094032-0.1382999l2.030201-0.1357994l0.0093002,0.1414986l-0.3913994,0.0226002
	l0.1842003,3.3061008l0.3931999-0.0209999l0.0067978,0.1374989L33.2918015,4.925499z M29.2019997,5.2723999l-0.0107994-0.1373997
	l0.3979988-0.0419998l-0.3174992-3.2958012L28.8785,1.8356991l-0.0125008-0.1382999l2.4047012-0.2010002
	c1.1097012-0.1099987,1.3469982,0.4056015,1.3982983,0.901701c0.0468025,0.5049-0.0821991,1.0998993-1.1919994,1.2073002
	L30.7695007,3.674799L30.9001999,5l0.4796009-0.0466995l0.0115986,0.1396999L29.2019997,5.2723999z M30.7553005,3.5347996
	l0.1945-0.0175991c0.229599-0.0235004,0.5833988-0.3260002,0.5457001-0.7384014l-0.0715008-0.5356998
	C31.3948002,2.0065994,31.0646,1.6548996,30.7451,1.6882992l-0.1665993,0.0142002L30.7553005,3.5347996z M23.9932995,22.9221001
	l1.9179001-13.2187996l5.0827999-0.4660015l1.6647987,13.8373013c0,0.8334007,0.4025002,1.0377007,0.4025002,1.0377007v2.4919987
	h-4.354599v-2.4919987c0,0,0.4022999-0.2042999,0.4022999-1.0377007v-0.8263016h-1.9799995v0.8263016
	c0,0.8334007,0.4041996,1.0377007,0.4041996,1.0377007v2.4919987h-3.9403992v-2.4919987
	c0,0,0.4004993-0.2042999,0.4004993-1.0377007V22.9221001z M27.3395996,19.7578011h1.5641003l-0.8132-6.8063011
	L27.3395996,19.7578011z M19.5842991,13.4141006v5.8498993h0.4022007c0.6061001,0,0.7721996-0.9008999,0.7721996-1.2798996
	v-3.3236008c0-1.1744003-0.6035004-1.2463989-0.7721996-1.2463989H19.5842991z M19.9864998,26.6042995h-3.7558994v-2.4919987
	c0,0,0.4013996-0.2042999,0.4013996-1.0377007V15.0639c0-0.5718002-0.4013996-0.8986006-0.4013996-0.8986006v-2.4952993
	c2.043499-0.8626003,3.7593002-1.1058006,3.7593002-1.1058006c1.3002987-0.1996002,2.4057999,0.0076008,3.0837994,0.7409
	c0.4176006,0.4587002,0.9482002,0.9423008,0.9113998,2.4225006v4.8920994
	c0.0368004,2.7835999-1.2231998,3.5160007-2.6532993,3.6268997h-1.7475014v0.828001
	c0,0.8334007,0.4022007,1.0377007,0.4022007,1.0377007V26.6042995z M60.5390015,24.1123009
	c0,0,0.480999-0.0654011,0.3806992-0.5859013V15.4361c0-0.8326006-0.3806992-1.1654005-0.3806992-1.1654005v-2.822999
	l3.1389999,0.8112984l1.3227005,7.1458015l0.0379944-2.4919014c0-0.829998-0.3764954-1.1632996-0.3764954-1.1632996v-3.1082001
	l2.8927994,0.9829998v2.4906006c0,0-0.4822006,0.3092003-0.4822006,1.1415005v9.3773003h-2.5959015l-1.4751968-5.6497993v2.3530998
	c0,0.8287983,0.2865982,0.7751999,0.2865982,0.7751999v2.5214996h-2.7492981V24.1123009z M59.8674011,24.1123009
	c0,0-0.3753014-0.2052002-0.3753014-1.0377007l-0.0294991-7.7729006c0-0.8305998,0.4845009-1.1414995,0.4845009-1.1414995
	v-2.7485008l-3.9932022-0.9563999v3.1618004c0,0,0.3242989,0.2060003,0.3242989,1.0369005v2.7467985h-1.3770981v-2.7467985
	c0-0.8309002,0.4836006-1.1418009,0.4836006-1.1418009v-3.2119999l-3.9160004-0.6756992v3.5767002
	c0,0,0.4801979,0.3109989,0.4801979,1.143199v8.7302008c0,0.8325005-0.4801979,1.0377007-0.4801979,1.0377007v2.5423985h3.8381004
	v-2.5423985c0,0-0.4057007-0.2052002-0.4057007-1.0377007v-2.8507996h1.3770981v2.8507996
	c0,0.8325005-0.4021988,1.0377007-0.4021988,1.0377007v2.5423985h3.9914017V24.1123009z M41.6220016,13.1926994
	c0-0.8330994,0.3981972-1.0382996,0.3981972-1.0382996V9.0797005l-4.3309975-0.1023998v2.9029999
	c0,0,0.4048004,0.2068996,0.4048004,1.0376987v8.4308014c0,1.9370003-1.1058006,1.9370003-2.5592003,1.0369987v3.6637001
	c1.7308998,1.1039009,6.0872002,2.4174004,6.0872002-3.3887997V13.1926994z M9.0410995,23.3579998l1.4769001-10.4064999
	l3.6238003-0.9675007l1.2019005,11.3740005c0,0.6051998,0.2915993,0.7543011,0.2915993,0.7543011h0.0278006v2.4919987h-3.1827002
	v-2.4919987c0,0,0.2809-0.1491013,0.2809-0.7543011v-0.6009007h-1.1920004v0.6009007
	c0,0.6051998,0.2909002,0.7543011,0.2909002,0.7543011v2.4919987H8.7494001v-2.4919987
	C8.7494001,24.1123009,9.0410995,23.9631996,9.0410995,23.3579998z M11.6807003,20.9454994h1.0368996l-0.4895-4.9495993
	L11.6807003,20.9454994z M68.0596008,15.5046997L68.2481003,15.783l0.553299-0.5524998
	c0.6202011-0.6219006,0.3469009-1.3923006-0.4167023-1.3813c-0.6377945,0.0081997-0.6570969,0.9045992-0.2111969,1.0317993
	c0.2608032,0.0754004,0.2445984,0.1854,0.1297989,0.3252001C68.2070007,15.3260994,68.0596008,15.5046997,68.0596008,15.5046997z
	 M70.1809998,22.6959h-2.3309021v2.8012009c0.9076004,1.2925987,1.8683014,1.5558987,3.005806,1.5019989
	c1.142395-0.0517998,2.5395966-1.434,2.5395966-2.6427002V22.021801c0-1.4533005-0.8289032-1.8624001-1.6057968-2.330101
	c-0.7813034-0.467701-1.6087036-0.2607994-1.6087036-1.4543991c0-0.9329014,1.1435013-1.3462009,1.1435013,0.675499h2.0709991
	v-2.5657005c-1.7098999-1.6085997-2.6705017-1.4257994-3.4744034-1.2715998
	c-1.2429962,0.2414999-2.0709991,1.7116003-2.0709991,3.7335005c0,1.3351002,0.5345993,1.9749012,0.9303055,2.4367008
	c0.3143997,0.3610992,0.9505005,0.7559986,1.4005966,0.9092979c0.5213013,0.1786003,1.1435013,0.1619015,1.1435013,1.1937008
	c0,1.6121006-1.1435013,1.3830013-1.1435013,0.7478008V22.6959z M42.4660988,13.0170002
	c0-3.4568996,2.7677994-4.0782013,4.2196999-4.0782013c1.4507027,0,4.1490021,0.8257008,4.1490021,4.0782013v9.6476994
	c0,3.6723003-2.4524994,4.4552002-4.1490021,4.4552002c-1.9347,0-4.1535988-1.8533001-4.2196999-4.0629005V13.0170002z
	 M45.9949989,22.3857994c0,1.1230011,1.4536018,1.1131001,1.4536018,0v-8.8132c0-1.2129993-1.4536018-1.2146988-1.4536018,0
	V22.3857994z M6.006,26.6042995H3.1022v-2.4919987c0,0,0.3118-0.1550007,0.3118-0.7751999v-5.1333008
	c0-0.4249001-0.3118-0.6724014-0.3118-0.6724014v-1.8665991c1.5801001-0.6497002,2.9070001-1.0728998,2.9070001-1.0728998
	c1.006-0.1517,1.8625998,0.0051003,2.3814001,0.5546999c0.3237,0.3413,0.4812994,0.9379988,0.4636993,1.761199V20.3034
	c0,1.2691002-0.7066994,2.3253002-1.8124995,2.4099998H5.6942v0.6237011c0,0.6201992,0.3118,0.7751999,0.3118,0.7751999V26.6042995z
	 M5.6942,16.7261009v4.3803978H6.006c0.4685998,0,0.5959001-0.671299,0.5959001-0.9580994V17.661499
	c0-0.8834991-0.4686003-0.9353981-0.5959001-0.9353981H5.6942z M72.7461014,12.7428989
	c-2.4168015-1.3169994-6.3026047-2.6489983-10.2969017-3.7420998C58.6562004,7.9638996,54.766201,7.1424999,51.9389,6.7535
	l0.217701,1.7688999c-1.0451012-0.2399006-2.1380997-0.5641003-2.9630013-0.7376003
	c-0.4108009-0.0848007-0.7158012-0.0958004-0.9958-0.1159992l0.4426994-0.1766014l0.9924011-4.3964996
	c0.7719002-0.0251999,3.9538002,0.7384014,3.9538002,0.7384014l-1.8071022,1.6301994l0.0780029,0.6346989
	c2.8675003,0.3838005,6.8648987,1.2229004,10.7593994,2.2884007c4.0359993,1.1037998,7.971302,2.455101,10.4341011,3.7970009
	c1.3092957,0.7134991,2.0425949,1.3353996,2.455101,2.2155991c0.405899,0.8648005,0.4786987,1.9419994,0.4786987,3.5841007
	v8.1618004c0,0.3520985-0.0242996,0.7888985-0.1459045,1.237299c-0.124794,0.4617996-0.3560944,0.9363003-0.7653961,1.3479004
	l-0.0006027,0.0009003c-0.9395981,0.9361992-2.0947952,0.9370995-3.426796,0.9370995h-0.0971985H4.4308H4.3379002
	c-0.6497002,0-1.2549002-0.0009003-1.8207002-0.1117001c-0.5933-0.1165009-1.1325001-0.3528996-1.6059-0.8253994H0.9105
	c-0.4108-0.4108009-0.6398-0.8861008-0.7645-1.3488007H0.1451C0.0227,26.934,0,26.4971008,0,26.1459007v-8.1618004
	c0-1.6421013,0.0729-2.7193003,0.4788-3.5841007C0.8895,13.5207005,1.622,12.8987999,2.9312999,12.1844006
	c2.4652998-1.3418999,6.4014997-2.6940002,10.4383001-3.7978001c4.1343002-1.1325016,8.3839989-2.0075016,11.2768002-2.3548012
	l0.0693989-0.5674992l-1.8044987-1.6301994c0,0,3.1801987-0.7636013,3.9538002-0.7384014l0.9923992,4.3964996l0.4402008,0.1766014
	c-0.2801018,0.0201988-0.5851002,0.0311985-0.9927006,0.1159992C26.4752998,7.9582996,25.3806,8.2824993,24.3428001,8.5223999
	L24.5667,6.6858006C21.7066002,7.0403996,17.5666008,7.8969994,13.5374002,9
	c-3.9951,1.0930004-7.8826003,2.4258995-10.3010998,3.7428989c-1.1817,0.6445999-1.8357,1.1877012-2.181,1.927001
	c-0.3529,0.7525997-0.4167,1.7593985-0.4167,3.3142004v8.1618004c0,0.3075981,0.0202,0.6882992,0.1234,1.0695v0.0016994
	c0.0989,0.368,0.2792,0.7435989,0.5992,1.0639c0.3691,0.3678989,0.7998999,0.5555992,1.2784001,0.6493988
	C3.1459,29.0293007,3.721,29.0301991,4.3379002,29.0301991H4.4308h67.1182022h0.0971985
	c1.1920013,0,2.2271957-0.0008984,2.9775009-0.7491989c0.3166962-0.3195,0.4977951-0.6959,0.5983963-1.0655994
	c0.1032028-0.3812008,0.1241989-0.7619019,0.1241989-1.0695v-8.1618004c0-1.5548019-0.063797-2.5616007-0.4166946-3.3142004
	C74.5835037,13.9306002,73.9287033,13.3874989,72.7461014,12.7428989z"/>
</svg>
