<?xml version="1.0" encoding="utf-8"?>
<!-- Generator: Adobe Illustrator 22.1.0, SVG Export Plug-In . SVG Version: 6.00 Build 0)  -->
<svg version="1.1" id="Layer_1" xmlns="http://www.w3.org/2000/svg" xmlns:xlink="http://www.w3.org/1999/xlink" x="0px" y="0px"
	 viewBox="0 0 25.8421402 25.8420982" height="15px" style="enable-background:new 0 0 25.8421402 25.8420982;" xml:space="preserve">
<style type="text/css">
	.st0{fill-rule:evenodd;clip-rule:evenodd;fill:#b3b3b3;}
</style>
<path class="st0" d="M6.0228,6.4241977l-2.4356-0.4237995l0.4233-2.4346008C1.7855,5.6837974,0.3027,8.597497,0.0411,11.9012976
	c-0.563,7.1136007,4.7466002,13.3364992,11.8604002,13.8996992c3.6633005,0.2900009,7.0898008-0.9773998,9.6293001-3.2465
	l0.1119995-2.6668987l-2.1990986-0.0923996c-1.8811016,1.7838993-4.4824009,2.7932987-7.2703009,2.5727997
	c-5.2177-0.4130001-9.1122999-4.9773998-8.6992998-10.1948004C3.6513,9.9343977,4.5932999,7.9398971,6.0228,6.4241977
	 M13.9407997,0.0408968c-3.0599995-0.2420998-5.9549999,0.6029015-8.3057995,2.2104015L5.1778002,4.8809981l2.1684999,0.3773003
	c1.7639999-1.2844009,3.9770002-1.9701004,6.3225994-1.7844009c5.2178001,0.4130001,9.1123009,4.9773993,8.6993008,10.1947994
	c-0.1422997,1.7972002-0.7772999,3.4372997-1.7614994,4.7985001l2.4678993,0.1037998l-0.1035004,2.4708996
	c1.5851994-1.9583988,2.6161003-4.3995991,2.830101-7.1012993C26.3642006,6.8269973,21.0545998,0.6040968,13.9407997,0.0408968z"/>
<path class="st0" d="M12.9211998,7.670898c2.8992004,0,5.25,2.3507991,5.25,5.2499995
	c0,2.8992996-2.3507996,5.2501001-5.25,5.2501001c-2.8992996,0-5.2500997-2.3508005-5.2500997-5.2501001
	C7.6711001,10.021697,10.0219002,7.670898,12.9211998,7.670898"/>
</svg>
