<?xml version="1.0" encoding="utf-8"?>
<!-- Generator: Adobe Illustrator 22.1.0, SVG Export Plug-In . SVG Version: 6.00 Build 0)  -->
<svg version="1.1" id="Layer_1" xmlns="http://www.w3.org/2000/svg" xmlns:xlink="http://www.w3.org/1999/xlink" x="0px" y="0px"
	 viewBox="0 0 120.0001984 120.0001984" height="45px" style="enable-background:new 0 0 120.0001984 120.0001984;" xml:space="preserve">
<style type="text/css">
	.st0{opacity:0.3;clip-path:url(#SVGID_2_);fill-rule:evenodd;clip-rule:evenodd;fill:#EC008C;}
	.st1{clip-path:url(#SVGID_2_);fill-rule:evenodd;clip-rule:evenodd;fill:#EC008C;}
	.st2{clip-path:url(#SVGID_2_);fill-rule:evenodd;clip-rule:evenodd;fill:#841544;}
</style>
<g>
	<defs>
		<rect id="SVGID_1_" x="-1" y="-1" width="122.0001984" height="122.0001984"/>
	</defs>
	<clipPath id="SVGID_2_">
		<use xlink:href="#SVGID_1_"  style="overflow:visible;"/>
	</clipPath>
	<path class="st0" d="M59.9998016,10.828598c27.1565018,0,49.1717987,22.0147018,49.1717987,49.1711998
		s-22.0152969,49.1718025-49.1717987,49.1718025S10.8285999,87.1562958,10.8285999,59.9997978
		S32.8432999,10.828598,59.9998016,10.828598 M59.9998016,0c33.1366959,0,60.0003967,26.8630981,60.0003967,59.9997978
		s-26.8637009,60.0004005-60.0003967,60.0004005S0,93.1364975,0,59.9997978S26.8631001,0,59.9998016,0z"/>
	<path class="st1" d="M59.9998016,0h0.0002975v10.828598h-0.0002975c-27.1565018,0-49.1712036,22.0147018-49.1712036,49.1711998
		v0.0003014H0v-0.0003014C0,26.8630981,26.8631001,0,59.9998016,0"/>
	<path class="st2" d="M0.9445,49.3409958h11.0460997c-0.7588997,3.4322052-1.1619997,6.9982033-1.1619997,10.658802H0
		C0,56.3620987,0.3243,52.8003998,0.9445,49.3409958"/>
</g>
</svg>
