<?xml version="1.0" encoding="utf-8"?>
<!-- Generator: Adobe Illustrator 22.1.0, SVG Export Plug-In . SVG Version: 6.00 Build 0)  -->
<svg version="1.1" id="Layer_1" xmlns="http://www.w3.org/2000/svg" xmlns:xlink="http://www.w3.org/1999/xlink" x="0px" y="0px"
	 viewBox="0 0 25.8431149 25.8465023" height="15px" style="enable-background:new 0 0 25.8431149 25.8465023;" xml:space="preserve">
<style type="text/css">
	.st0{fill-rule:evenodd;clip-rule:evenodd;fill:#b3b3b3;}
</style>
<path class="st0" d="M7.3470998,5.2602015L7.3483,5.2605009c0.1101999-0.0802994,0.2221999-0.1584988,0.3358998-0.2339001
	l0.0527-0.0348988l0.0329003-0.0212002L7.8188,4.9387007l0.0370998-0.0234985l0.0457001-0.0286007
	c0.1107998-0.0688992,0.2228003-0.1355,0.3359003-0.1998997L8.2365999,4.686202
	C8.7454004,4.3962011,9.2823,4.1524019,9.8418999,3.9594014l0.0031004,0.0016994
	c0.6768999-0.233099,1.3813-0.3900986,2.0992994-0.4651985l0.1029005-0.0102005h0.0002995l0.1024008-0.0091L12.1538,3.4763024
	c0.4975004-0.0402012,1.0040998-0.0408001,1.5171003-0.0003014c0.4853001,0.0383015,0.9586992,0.1131001,1.4187994,0.2203007
	l0.0326004,0.0079002l0.1674995,0.041399l0.0896006,0.0237999l0.1040001,0.0286999
	c0.3114996,0.087801,0.6219006,0.1927013,0.9295006,0.3143003c0.603199,0.2390003,1.1678982,0.5328999,1.6910992,0.8738995
	l0.1632996,0.1089001l0.0077,0.0054016c1.0029011,0.6873989,1.8628998,1.5609989,2.5340996,2.5667992l0.0156002,0.0235004
	l0.0868015,0.1338005l0.0594997,0.094099l0.0408001,0.0662994l0.0903988,0.1511002l0.0118999,0.0200996
	c0.6075001,1.0452003,1.0125999,2.2011003,1.1886005,3.4036007l0.0048008,0.0348997l0.0240993,0.1805
	c0.0750999,0.6177006,0.0895996,1.2515001,0.038599,1.8955002c-0.0328999,0.4148006-0.0918999,0.8210001-0.175499,1.2172003
	l-0.0039997,0.0190001l-0.0172997,0.0803003l-0.0096016,0.0435991l-0.0033989,0.0132999
	c-0.1060009,0.4595003-0.2476997,0.9170008-0.4265995,1.3686008c-0.2075005,0.5237999-0.4564018,1.0188007-0.7415009,1.4827995
	l-0.0312004,0.0505009l-0.0118999,0.0186996l-0.0303993,0.0482006l-0.0132999,0.0205994l-0.0291996,0.0457001l-0.0146999,0.0228996
	l-0.0287018,0.0431004c-0.0724983,0.1100006-0.1473999,0.2176991-0.2241993,0.3239994
	c-0.3449993,0.4757004-0.7332993,0.9209995-1.1630001,1.3281002c-0.4112988,0.3903008-0.8575001,0.7437992-1.3323002,1.0547009
	l-0.0144997,0.0096989L18.0527,20.8915024l-0.023201,0.0150986l-0.0181999,0.0116005l-0.0050983,0.0030994l-0.0235004,0.0146999
	l-0.023201,0.014801l-0.0235996,0.0146999l-0.0231991,0.0144997l-0.0045013,0.0028l-0.0189991,0.0116005l-0.0235996,0.0144997
	l-0.0237999,0.0144997l-0.0235004,0.014101l-0.0473003,0.0283985l-0.0238991,0.014101l-0.0237999,0.0142002
	c-0.1907005,0.1119995-0.3852005,0.2171993-0.5845013,0.3157997c-0.976799,0.4846992-2.0352001,0.8013992-3.1271,0.9286003
	l-0.0096998,0.0011997l-0.0295,0.0033989l-0.0923996,0.0096016l-0.0334005,0.0030994
	c-0.5464993,0.0524998-1.1052999,0.0587006-1.6712999,0.0142002c-0.4833002-0.0382996-0.9549999-0.1123009-1.4131002-0.219101
	l-0.0436993-0.0101986L10.5681,22.1034012c-0.3807001-0.0981007-0.7596998-0.221199-1.1346998-0.3696995
	c-0.6032-0.2388992-1.1679001-0.5328999-1.6911001-0.8738995L7.579,20.7509022l-0.0077-0.0053005
	c-1.0029001-0.6874008-1.8629003-1.5611-2.5341001-2.5667992L5.0215998,18.155302l-0.0867996-0.1338005l-0.0595002-0.094099
	L4.8344998,17.861002l-0.0903997-0.1511002l-0.0118999-0.0200996C4.1247001,16.644701,3.7196,15.4887018,3.5436001,14.2862015
	L3.5388,14.2514009l-0.0241001-0.1805992C3.4396,13.4531012,3.4251001,12.8193016,3.4761,12.1753016
	c0.0329001-0.4153004,0.0924001-0.8221006,0.1761-1.2192001L3.6547,10.9434013l0.0218-0.1000996L3.6887,10.7891016
	c0.1055-0.4552002,0.2466002-0.9085007,0.4238002-1.3558006c0.1808996-0.4566002,0.3931999-0.8916988,0.6338-1.3030987
	l0.0386-0.0654011l0.0132999-0.0221004l0.0376997-0.0623989l0.0150003-0.0247002l0.0369-0.0589008
	C5.2191,7.3683004,5.6006999,6.8762007,6.0247998,6.426301L6.0215998,6.4258013
	C6.4287,5.9941015,6.8729,5.6046019,7.3470998,5.2602015 M11.6847,0.060302l-0.1040001,0.0102005l-0.0342999,0.0036983
	l-0.0994997,0.0110016c-1.9157,0.2182999-3.7163005,0.8603992-5.2974005,1.8354988L6.1415,1.9255019l-0.0946002,0.059
	L6.0236001,1.9989005L5.9712,2.0324013L5.9654999,2.0360024C4.4354,3.0120022,3.1008,4.315402,2.0789001,5.895402L2.0146,5.9952021
	l-0.0142,0.0223999L1.9349,6.1225004L1.9236,6.1409006c-0.726,1.1744003-1.2702,2.4786015-1.5911,3.8755007L0.3192,10.074501
	l-0.0425,0.1973C0,11.5840015-0.0652,12.9061012,0.0635,14.1964016l0.0042,0.0396996c0.0086,0.0836,0.0176,0.1667004,0.0278,0.25
	c0.0105,0.0859003,0.0219,0.1715002,0.034,0.2568007l0.0051,0.0365992c0.2393,1.6588001,0.7971,3.2244015,1.6129999,4.6278
	l0.0326,0.0561008l0.1012,0.1693001l0.0816001,0.1329002l0.0637999,0.1005993L2.1436,20.0465012l0.036,0.0538998
	c0.9524,1.4288998,2.1956999,2.6781998,3.6867001,3.648201c1.165,0.7610989,2.4647002,1.3398991,3.8615994,1.6947994
	C9.7988005,25.4613018,9.8694,25.479702,9.9407997,25.4964008l0.0026007,0.0006008l0.0101995,0.0025005l0.0178003,0.0039997
	c1.4827995,0.3494987,2.9823999,0.4260998,4.4384995,0.2563l0.0218-0.0023003l0.0593004-0.0070992l0.0198002-0.0025005
	c1.7095995-0.2098007,3.3259001-0.7574997,4.7736006-1.5781002l0.0285988-0.016201l0.020401-0.0112991l0.0079994-0.0048008
	l0.0564003-0.0325985l0.0282993-0.0164013l0.0564003-0.0328999l0.0280991-0.0167999l0.0280018-0.0166988l0.0277996-0.0167007
	l0.0280991-0.0167007l0.0150013-0.0087986l0.0130997-0.0082016l0.0276985-0.0169983l0.0278015-0.0171013l0.0277996-0.0170002
	l0.0277996-0.0171986l0.0118999-0.0074005l0.0158005-0.009901l0.0275002-0.0172997L19.8167,23.8515015l0.0275002-0.0172997
	l0.0275002-0.017601l0.0093994-0.0058994l0.0181007-0.0116997l0.0546989-0.0354004l0.0275002-0.0179005l0.0272007-0.0177994
	l0.0065002-0.0042992l0.0207005-0.0136013c0.0365982-0.0235004,0.0731983-0.0475998,0.1085987-0.0723
	c1.4644012-0.9849987,2.7385998-2.2766991,3.7133999-3.8281002l0.0105-0.0167999l0.0003014-0.0004997l0.0622997-0.100399
	l0.0023003-0.0039997c0.7213993-1.1715012,1.2622986-2.4706001,1.5813999-3.8619013l0.0167999-0.0737l0.0418987-0.1949997
	c0.2737999-1.3065004,0.3376007-2.6229,0.2095013-3.9076004l-0.0042-0.0395994
	c-0.0086002-0.0837002-0.0173016-0.1667004-0.0278015-0.2501001c-0.0105-0.0858002-0.0218983-0.1715002-0.0339985-0.2568007
	l-0.0051003-0.0365c-0.2392998-1.6588993-0.7971001-3.2244987-1.6130009-4.6278992l-0.0326004-0.0561008l-0.1012001-0.169199
	l-0.0815983-0.1330013L23.8195,5.9799013l-0.1168003-0.1802998l-0.0359993-0.0538998
	c-0.9524002-1.4288998-2.1956997-2.6781003-3.6867008-3.6480997c-1.1693001-0.7634012-2.4734993-1.3439999-3.8757992-1.6983013
	l-0.1809006-0.0450993l-0.0703001-0.0163994C14.4615002,0.0124008,13.0550003-0.0728977,11.6847,0.060302z"/>
<path class="st0" d="M12.9231005,7.6730013c2.8992996,0,5.2501001,2.3508005,5.2501001,5.2501001
	c0,2.8991995-2.3508005,5.25-5.2501001,5.25c-2.8992004,0-5.2500005-2.3508005-5.2500005-5.25
	C7.6731,10.0238018,10.0239,7.6730013,12.9231005,7.6730013"/>
</svg>
